<?xml version="1.0" encoding="UTF-8"?>
<svg height="128px" viewBox="0 0 128 128" width="128px" xmlns="http://www.w3.org/2000/svg" xmlns:xlink="http://www.w3.org/1999/xlink">
    <linearGradient id="a" gradientUnits="userSpaceOnUse" x1="31.462524" x2="39" y1="113.997253" y2="113.997253">
        <stop offset="0" stop-color="#1c71d8"/>
        <stop offset="0.469318" stop-color="#62a0ea"/>
        <stop offset="1" stop-color="#1c71d8"/>
    </linearGradient>
    <linearGradient id="b" gradientUnits="userSpaceOnUse" x1="8" x2="120" y1="70" y2="70">
        <stop offset="0" stop-color="#1c71d8"/>
        <stop offset="0.0714286" stop-color="#62a0ea"/>
        <stop offset="0.142857" stop-color="#1c71d8"/>
        <stop offset="0.857143" stop-color="#1c71d8"/>
        <stop offset="0.928571" stop-color="#62a0ea"/>
        <stop offset="1" stop-color="#1c71d8"/>
    </linearGradient>
    <linearGradient id="c" gradientUnits="userSpaceOnUse" x1="48" x2="80" y1="100" y2="32">
        <stop offset="0" stop-color="#3584e4"/>
        <stop offset="1" stop-color="#62a0ea"/>
    </linearGradient>
    <radialGradient id="d" cx="93.338875" cy="259.468933" gradientTransform="matrix(0 -1.498446 1.498444 0 -308.799622 223.863251)" gradientUnits="userSpaceOnUse" r="21.355469">
        <stop offset="0" stop-color="#f8e45c"/>
        <stop offset="1" stop-color="#ff7800"/>
    </radialGradient>
    <path d="m 24 100 v 12 h 4 c 2.210938 0 4 1.789062 4 4 v 7 c 0 1.992188 1.183594 3.792969 3.011719 4.585938 c 1.828125 0.789062 3.953125 0.417968 5.40625 -0.945313 l 13.523437 -12.707031 c 1.324219 -1.242188 3.070313 -1.933594 4.882813 -1.933594 h 9.175781 v -12 z m 0 0" fill="url(#a)" fill-rule="evenodd"/>
    <path d="m 24 28 h 80 c 8.835938 0 16 7.164062 16 16 v 52 c 0 8.835938 -7.164062 16 -16 16 h -80 c -8.835938 0 -16 -7.164062 -16 -16 v -52 c 0 -8.835938 7.164062 -16 16 -16 z m 0 0" fill="url(#b)"/>
    <path d="m 24 24 h 80 c 8.835938 0 16 7.164062 16 16 v 52 c 0 8.835938 -7.164062 16 -16 16 h -80 c -8.835938 0 -16 -7.164062 -16 -16 v -52 c 0 -8.835938 7.164062 -16 16 -16 z m 0 0" fill="url(#c)"/>
    <path d="m 24 106 v 2 h 4 c 2.210938 0 4 1.789062 4 4 v 7 c 0 1.992188 1.183594 3.792969 3.011719 4.585938 c 1.828125 0.789062 3.953125 0.417968 5.40625 -0.945313 l 13.523437 -12.707031 c 1.324219 -1.242188 3.070313 -1.933594 4.882813 -1.933594 h 9.175781 v -2 z m 0 0" fill="#3584e4" fill-rule="evenodd"/>
    <path d="m 63.917969 48.363281 v 0.011719 c -1.289063 0.035156 -2.332031 0.644531 -3.011719 1.242188 c -0.667969 0.597656 -1.101562 1.21875 -1.488281 1.863281 c -0.773438 1.289062 -1.324219 2.707031 -1.863281 4.113281 c -0.539063 1.394531 -1.03125 2.789062 -1.488282 3.808594 c -0.246094 0.5625 -0.1875 0.480468 -0.339844 0.703125 l -10.183593 -0.023438 c -1.148438 -0.011719 -2.167969 0.601563 -2.699219 1.542969 c 0.257812 0.539062 0.574219 1.027344 0.871094 1.488281 c 0.808594 1.253907 1.828125 2.4375 2.859375 3.597657 c 1.03125 1.148437 2.0625 2.25 2.847656 3.164062 c 0.488281 0.578125 0.839844 1.117188 1.027344 1.398438 c -0.023438 0.214843 -0.035157 0.738281 -0.207031 1.332031 c -0.140626 0.480469 -0.328126 1.042969 -0.535157 1.636719 c -0.238281 0.691406 -0.5 1.429687 -0.765625 2.183593 c -0.480468 1.40625 -0.960937 2.824219 -1.195312 4.289063 c -0.117188 0.726562 -0.1875 1.476562 -0.023438 2.355468 c 0.039063 0.234376 0.109375 0.488282 0.203125 0.75 c 0.265625 0.730469 0.761719 1.519532 1.566407 2.0625 c 1.078124 0.726563 2.320312 0.808594 3.222656 0.703126 c 0.914062 -0.105469 1.640625 -0.375 2.355468 -0.679688 c 1.441407 -0.609375 2.789063 -1.453125 4.125 -2.296875 c 1.324219 -0.84375 2.625 -1.6875 3.644532 -2.273437 c 0.515625 -0.292969 1.011718 -0.46875 1.300781 -0.570313 c 0.273437 0.101563 0.753906 0.269531 1.242187 0.558594 c 0.996094 0.585937 2.25 1.453125 3.550782 2.308593 c 1.300781 0.84375 2.601562 1.699219 4.007812 2.320313 c 0.691406 0.304687 1.417969 0.585937 2.332032 0.691406 c 0.914062 0.105469 2.203124 0 3.28125 -0.785156 c 0.117187 -0.09375 0.234374 -0.199219 0.339843 -0.304687 c 0.628907 -0.621094 1.011719 -1.339844 1.242188 -2.074219 c 0.339843 -1.082031 0.332031 -2.199219 0.1875 -3.117188 c -0.246094 -1.535156 -0.796875 -2.917969 -1.324219 -4.242187 c -0.265625 -0.667969 -0.535156 -1.320313 -0.769531 -1.925782 c -0.230469 -0.59375 -0.425781 -1.144531 -0.566407 -1.625 c -0.242187 -0.835937 -0.222656 -1.324218 -0.222656 -1.453124 c 0.105469 -0.097657 0.484375 -0.664063 1.078125 -1.230469 c 0.820313 -0.796875 1.945313 -1.78125 3.070313 -2.859375 c 1.125 -1.066406 2.25 -2.203125 3.140625 -3.574219 c 0.308593 -0.480469 0.601562 -1.027344 0.824219 -1.621094 c -0.492188 -1.046875 -1.5625 -1.726562 -2.769532 -1.738281 h -10.792968 c -0.058594 -0.09375 -0.058594 -0.070312 -0.117188 -0.199219 c -0.433594 -0.832031 -0.960938 -2.238281 -1.5 -3.703125 c -0.527344 -1.476562 -1.078125 -3.011718 -1.792969 -4.394531 c -0.363281 -0.691406 -0.75 -1.359375 -1.394531 -2.015625 c -0.644531 -0.667969 -1.78125 -1.441406 -3.269531 -1.417969 z m 0 0" fill="url(#d)"/>
    <path d="m 63.917969 44.363281 v 0.011719 c -1.289063 0.035156 -2.332031 0.644531 -3.011719 1.242188 c -0.667969 0.597656 -1.101562 1.21875 -1.488281 1.863281 c -0.773438 1.289062 -1.324219 2.707031 -1.863281 4.113281 c -0.539063 1.394531 -1.03125 2.789062 -1.488282 3.808594 c -0.246094 0.5625 -0.1875 0.480468 -0.339844 0.703125 l -10.183593 -0.023438 c -1.359375 -0.011719 -2.542969 0.84375 -2.941407 2.085938 c -0.4375 1.421875 -0.199218 2.519531 0.242188 3.457031 c 0.53125 -0.941406 1.550781 -1.554688 2.699219 -1.542969 l 10.183593 0.023438 c 0.152344 -0.222657 0.09375 -0.140625 0.339844 -0.703125 c 0.457032 -1.019532 0.949219 -2.414063 1.488282 -3.808594 c 0.539062 -1.40625 1.089843 -2.824219 1.863281 -4.113281 c 0.386719 -0.644531 0.820312 -1.265625 1.488281 -1.863281 c 0.679688 -0.597657 1.722656 -1.207032 3.011719 -1.242188 v -0.011719 c 1.488281 -0.023437 2.625 0.75 3.269531 1.417969 c 0.644531 0.65625 1.03125 1.324219 1.394531 2.015625 c 0.714844 1.382813 1.265625 2.917969 1.792969 4.394531 c 0.539062 1.464844 1.066406 2.871094 1.5 3.703125 c 0.058594 0.128907 0.058594 0.105469 0.117188 0.199219 h 10.792968 c 1.207032 0.011719 2.277344 0.691406 2.773438 1.738281 c 0.421875 -1.117187 0.597656 -2.402343 0.109375 -3.757812 c -0.433594 -1.183594 -1.582031 -1.96875 -2.882813 -1.980469 h -10.792968 c -0.058594 -0.09375 -0.058594 -0.070312 -0.117188 -0.199219 c -0.433594 -0.832031 -0.960938 -2.238281 -1.5 -3.703125 c -0.527344 -1.476562 -1.078125 -3.011718 -1.792969 -4.394531 c -0.363281 -0.691406 -0.75 -1.359375 -1.394531 -2.015625 c -0.644531 -0.667969 -1.78125 -1.441406 -3.269531 -1.417969 z m 0 0" fill="#1c71d8"/>
</svg>
