<?xml version="1.0" encoding="UTF-8"?>
<svg height="128px" viewBox="0 0 128 128" width="128px" xmlns="http://www.w3.org/2000/svg" xmlns:xlink="http://www.w3.org/1999/xlink">
    <linearGradient id="a" gradientUnits="userSpaceOnUse" x1="78.94080057136" x2="78.94080057136" y1="27.99527024909" y2="53.95902858389">
        <stop offset="0" stop-color="#e01b24"/>
        <stop offset="0.2" stop-color="#ed333b"/>
        <stop offset="0.5" stop-color="#f66151"/>
        <stop offset="0.7" stop-color="#ed333b"/>
        <stop offset="1" stop-color="#e01b24"/>
    </linearGradient>
    <linearGradient id="b" gradientUnits="userSpaceOnUse" x1="70.177765" x2="70.177765" y1="37.111755" y2="44.842484">
        <stop offset="0" stop-color="#f66151"/>
        <stop offset="0.3" stop-color="#ed333b"/>
        <stop offset="0.7" stop-color="#ed333b"/>
        <stop offset="1" stop-color="#f66151"/>
    </linearGradient>
    <path d="m 43.304688 32.042969 c -0.222657 0.625 -0.476563 1.238281 -0.761719 1.839843 c -0.484375 0.953126 -1.042969 1.863282 -1.671875 2.730469 c -0.628906 0.863281 -1.324219 1.679688 -2.078125 2.433594 c -0.757813 0.753906 -1.570313 1.449219 -2.433594 2.078125 c -0.867187 0.628906 -1.777344 1.1875 -2.730469 1.671875 s -1.941406 0.894531 -2.957031 1.226563 c -1.015625 0.328124 -2.058594 0.578124 -3.113281 0.746093 c -0.699219 0.09375 -1.398438 0.148438 -2.105469 0.167969 l -14.667969 37.585938 c -5.148437 8.921874 -2.960937 26.988281 4.914063 31.53125 c 6.035156 3.484374 16.59375 2.15625 20.472656 -2.949219 c 7.835937 -13.570313 -9.058594 -16.167969 -3.152344 -26.679688 c 0.574219 -1.019531 0.976563 -2.132812 1.5625 -3.152343 c 0.589844 -1.019532 1.242188 -2 1.949219 -2.929688 c 0.707031 -0.933594 1.46875 -1.808594 2.277344 -2.621094 c 0.804687 -0.8125 1.648437 -1.558594 2.527344 -2.230468 c 0.878906 -0.667969 1.785156 -1.261719 2.710937 -1.769532 c 0.925781 -0.507812 1.867187 -0.925781 2.8125 -1.253906 c 0.941406 -0.332031 1.886719 -0.566406 2.820313 -0.707031 c 0.449218 -0.046875 0.933593 -0.15625 1.375 -0.15625 c 2.601562 -1.382813 2.894531 -4.089844 -0.035157 -4.042969 c 5.148438 -8.921875 7.550781 -26.992188 -0.320312 -31.539062 c -2.304688 -1.332032 -4.839844 -1.964844 -7.394531 -1.980469 z m -6.480469 76.667969" fill="#c01c28"/>
    <path d="m 49.523438 46.402344 h 41.824218 c 6.425782 0 11.601563 -6.402344 11.601563 11.601562 c 0 6.425782 -5.175781 11.601563 -11.601563 11.601563 h -40.292968 l -0.035157 -4.042969 s -7.925781 -19.160156 -1.496093 -19.160156 z m 0 0" fill="#a51d2d"/>
    <path d="m 62.3125 65.5625 c 0 8.90625 -7.222656 16.128906 -16.132812 16.128906 c -8.90625 0 -16.128907 -7.222656 -16.128907 -16.128906 c 0 -8.910156 7.222657 -16.132812 16.128907 -16.132812 c 8.910156 0 16.132812 7.222656 16.132812 16.132812 z m 0 0" fill="none" stroke="#c01c28" stroke-linecap="round" stroke-linejoin="round" stroke-width="3.64635"/>
    <path d="m 47.472656 63.652344 c -2.539062 0.4375 -5.96875 2.734375 -5.378906 5.242187 c 0.65625 2.796875 3.351562 5.269531 6.277344 5.269531 c 1.277344 -0.003906 2.511718 -0.46875 3.472656 -1.308593 c -2.933594 -0.757813 -4.984375 -3.402344 -4.984375 -6.433594 c 0 -0.957031 0.210937 -1.902344 0.613281 -2.769531 z m 0 0" fill="#a51d2d"/>
    <path d="m 43.304688 28 c -0.222657 0.625 -0.476563 1.238281 -0.761719 1.835938 c -0.484375 0.953124 -1.042969 1.867187 -1.671875 2.730468 c -0.628906 0.867188 -1.324219 1.679688 -2.078125 2.4375 c -0.757813 0.753906 -1.570313 1.449219 -2.433594 2.074219 c -0.867187 0.628906 -1.777344 1.1875 -2.730469 1.675781 c -0.953125 0.484375 -1.941406 0.894532 -2.957031 1.222656 c -1.015625 0.332032 -2.058594 0.582032 -3.113281 0.75 c -0.699219 0.089844 -1.398438 0.144532 -2.105469 0.164063 l -14.667969 37.589844 c -5.148437 8.917969 -2.960937 26.984375 4.914063 31.53125 c 6.035156 3.484375 16.59375 2.15625 20.472656 -2.949219 c 7.835937 -13.570312 -9.058594 -16.167969 -3.152344 -26.683594 c 0.574219 -1.019531 0.976563 -2.132812 1.5625 -3.148437 c 0.589844 -1.023438 1.242188 -2.003907 1.949219 -2.933594 s 1.46875 -1.804687 2.277344 -2.617187 c 0.804687 -0.816407 1.648437 -1.558594 2.527344 -2.230469 c 0.878906 -0.671875 1.785156 -1.261719 2.710937 -1.769531 c 0.925781 -0.507813 1.867187 -0.929688 2.8125 -1.257813 c 0.941406 -0.328125 1.886719 -0.566406 2.820313 -0.707031 c 0.449218 -0.042969 0.898437 -0.066406 1.339843 -0.0625 l 4.59375 -11.367188 c 5.148438 -8.921875 2.957031 -19.761718 -4.914062 -24.304687 c -2.304688 -1.332031 -4.839844 -1.96875 -7.394531 -1.980469 z m 0 0" fill="#e01b24"/>
    <path d="m 49.523438 42.355469 h 41.824218 c 6.40625 0 11.601563 5.195312 11.601563 11.605469 c 0 6.40625 -5.195313 11.601562 -11.601563 11.601562 h -41.824218 c -6.410157 0 -11.601563 -5.195312 -11.601563 -11.601562 c 0 -6.410157 5.191406 -11.605469 11.601563 -11.605469 z m 0 0" fill="#c01c28"/>
    <path d="m 33.914062 26.703125 c -2.816406 2.347656 -5.40625 7.617187 -2.894531 10.285156 c 2.796875 2.972657 7.871094 4.097657 11.472657 2.019531 c 1.574218 -0.910156 2.757812 -2.359374 3.347656 -4.082031 c -4.148438 1.15625 -8.554688 -0.640625 -10.710938 -4.371093 c -0.679687 -1.179688 -1.09375 -2.496094 -1.214844 -3.851563 z m 0 0" fill="#a51d2d"/>
    <path d="m 33.390625 38.835938 c -3.964844 2.085937 -7.9375 2.054687 -7.9375 2.054687 l -5.097656 13.070313 h 91.34375 c 7.195312 0 8.300781 -5.875 8.300781 -13.066407 c 0 -7.191406 -1.105469 -12.898437 -8.300781 -12.898437 h -65.519531 c -1.035157 0 -2.035157 0.132812 -3 0.359375 c -0.082032 0.234375 -0.167969 0.464843 -0.257813 0.695312 c -0.402344 0.882813 -0.867187 1.738281 -1.394531 2.554688 c -0.523438 0.816406 -1.105469 1.597656 -1.742188 2.328125 c -0.636718 0.734375 -1.324218 1.421875 -2.058594 2.058594 c -0.734374 0.636718 -1.511718 1.21875 -2.328124 1.746093 c -0.648438 0.402344 -1.320313 0.769531 -2.007813 1.097657 z m 0 0" fill="url(#a)"/>
    <path d="m 118.4375 40.976562 c 0 5.753907 -1.515625 10.417969 -3.386719 10.417969 c -1.871093 0 -3.386719 -4.664062 -3.386719 -10.417969 c 0 -5.753906 1.515626 -10.417968 3.386719 -10.417968 c 1.871094 0 3.386719 4.664062 3.386719 10.417968 z m 0 0" fill="#241f31"/>
    <path d="m 12.996094 81.476562 c -3.945313 6.839844 -2.269532 20.691407 3.765625 24.175782 c 4.628906 2.675781 12.726562 1.652344 15.699219 -2.257813 c 6.007812 -10.40625 -6.945313 -12.398437 -2.417969 -20.460937 c 6.253906 -10.832032 -11.261719 -11.46875 -17.046875 -1.457032 z m 0 0" fill="#241f31"/>
    <g fill="#c0bfbc">
        <path d="m 22.472656 92.757812 c 0 1.105469 -0.894531 2 -2 2 c -1.105468 0 -2 -0.894531 -2 -2 c 0 -1.105468 0.894532 -2 2 -2 c 1.105469 0 2 0.894532 2 2 z m 0 0"/>
        <path d="m 48.179688 58.804688 c 0 1.105468 -0.894532 2 -2 2 c -1.105469 0 -2 -0.894532 -2 -2 c 0 -1.105469 0.894531 -2 2 -2 c 1.105468 0 2 0.894531 2 2 z m 0 0"/>
        <path d="m 96.6875 58.804688 c 0 1.105468 -0.894531 2 -2 2 s -2 -0.894532 -2 -2 c 0 -1.105469 0.894531 -2 2 -2 s 2 0.894531 2 2 z m 0 0"/>
    </g>
    <path d="m 50.851562 37.113281 h 38.652344 c 2.136719 0 3.867188 1.730469 3.867188 3.863281 c 0 2.136719 -1.730469 3.867188 -3.867188 3.867188 h -38.652344 c -2.136718 0 -3.867187 -1.730469 -3.867187 -3.867188 c 0 -2.132812 1.730469 -3.863281 3.867187 -3.863281 z m 0 0" fill="url(#b)"/>
    <path d="m 94.039062 57.679688 l 1.296876 2.25" fill="none" stroke="#000000" stroke-linecap="round" stroke-linejoin="round" stroke-width="0.464972"/>
    <path d="m 94.039062 57.679688 l 1.296876 2.25" fill="#f66151"/>
    <path d="m 47.304688 59.453125 l -2.246094 -1.296875" fill="none" stroke="#000000" stroke-linecap="round" stroke-linejoin="round" stroke-width="0.464972"/>
    <path d="m 47.304688 59.453125 l -2.246094 -1.296875" fill="#f66151"/>
    <path d="m 21.390625 91.839844 l -1.835937 1.835937" fill="none" stroke="#000000" stroke-linecap="round" stroke-linejoin="round" stroke-width="0.464972"/>
    <path d="m 21.390625 91.839844 l -1.835937 1.835937" fill="#f66151"/>
</svg>
