<?xml version="1.0" encoding="UTF-8"?>
<svg height="128px" viewBox="0 0 128 128" width="128px" xmlns="http://www.w3.org/2000/svg" xmlns:xlink="http://www.w3.org/1999/xlink">
    <radialGradient id="a" cx="79.179695" cy="251.824905" gradientTransform="matrix(0 -1.761517 1.670688 0 -341.541561 214.53644)" gradientUnits="userSpaceOnUse" r="22.584961">
        <stop offset="0" stop-color="#f9f06b"/>
        <stop offset="0.3" stop-color="#f8e45c"/>
        <stop offset="1" stop-color="#ff7800"/>
    </radialGradient>
    <linearGradient id="b" gradientUnits="userSpaceOnUse" x1="12.000267" x2="116.000427" y1="103.00027569994" y2="103.00027569994">
        <stop offset="0" stop-color="#1a5fb4"/>
        <stop offset="0.05" stop-color="#62a0ea"/>
        <stop offset="0.1" stop-color="#1c71d8"/>
        <stop offset="0.9" stop-color="#1c71d8"/>
        <stop offset="0.95" stop-color="#62a0ea"/>
        <stop offset="1" stop-color="#1a5fb4"/>
    </linearGradient>
    <path d="m 95.445312 87.398438 v 33.800781 l -33.800781 -33.800781 z m 0 0" fill="#3584e4" fill-rule="evenodd"/>
    <path d="m 105.601562 12 h -83.203124 c -5.742188 0 -10.398438 4.65625 -10.398438 10.398438 v 62.402343 c 0 5.742188 4.65625 10.398438 10.398438 10.398438 h 83.203124 c 5.742188 0 10.398438 -4.65625 10.398438 -10.398438 v -62.402343 c 0 -5.742188 -4.65625 -10.398438 -10.398438 -10.398438 z m 0 0" fill="#3584e4"/>
    <path d="m 78.011719 66.105469 c 0 -0.023438 -0.003907 -0.125 -0.007813 -0.125 c -0.019531 0.066406 -0.03125 0.105469 -0.035156 0.132812 c -0.003906 0.023438 0.003906 0.027344 0.019531 0.015625 c 0.003907 -0.003906 0.015625 -0.023437 0.023438 -0.023437 z m 0 0" fill="#c0bfbc"/>
    <path d="m 49.523438 66.265625 c 0.035156 0.054687 0.089843 0.132813 0.113281 0.164063 c 0.023437 0.035156 0.039062 0.054687 0.046875 0.058593 c 0.007812 0 0.003906 -0.015625 -0.007813 -0.050781 c -0.0625 -0.191406 -0.097656 -0.28125 -0.117187 -0.289062 c -0.011719 -0.003907 -0.019532 0.015624 -0.027344 0.050781 c -0.003906 0.011719 -0.003906 0.042969 -0.007812 0.066406 z m 0 0" fill="#c0bfbc"/>
    <path d="m 86.617188 49.59375 c -0.042969 -0.101562 -0.085938 -0.203125 -0.136719 -0.300781 c -0.078125 -0.140625 -0.171875 -0.273438 -0.269531 -0.402344 c -0.101563 -0.125 -0.210938 -0.246094 -0.328126 -0.355469 c -0.117187 -0.109375 -0.242187 -0.210937 -0.375 -0.300781 c -0.132812 -0.089844 -0.273437 -0.171875 -0.417968 -0.242187 c -0.144532 -0.070313 -0.296875 -0.132813 -0.457032 -0.183594 c -0.15625 -0.046875 -0.316406 -0.085938 -0.484374 -0.113282 c -0.164063 -0.027343 -0.332032 -0.039062 -0.503907 -0.042968 h -11.390625 c -0.058594 -0.097656 -0.058594 -0.074219 -0.121094 -0.210938 c -0.113281 -0.21875 -0.238281 -0.476562 -0.363281 -0.761718 c -0.125 -0.289063 -0.253906 -0.601563 -0.386719 -0.941407 c -0.269531 -0.671875 -0.546874 -1.429687 -0.832031 -2.203125 c -0.277343 -0.777344 -0.5625 -1.570312 -0.875 -2.355468 c -0.152343 -0.390626 -0.3125 -0.777344 -0.484375 -1.160157 c -0.167968 -0.378906 -0.34375 -0.753906 -0.535156 -1.121093 c -0.09375 -0.179688 -0.191406 -0.363282 -0.296875 -0.542969 c -0.101563 -0.179688 -0.210937 -0.355469 -0.328125 -0.535157 c -0.117188 -0.175781 -0.242188 -0.351562 -0.382812 -0.527343 c -0.136719 -0.171875 -0.292969 -0.347657 -0.460938 -0.519531 c -0.085938 -0.089844 -0.179688 -0.179688 -0.28125 -0.269532 c -0.097656 -0.089844 -0.207031 -0.179687 -0.324219 -0.265625 c -0.117187 -0.089843 -0.242187 -0.171875 -0.371093 -0.253906 c -0.132813 -0.082031 -0.269532 -0.160156 -0.417969 -0.234375 c -0.144531 -0.070312 -0.292969 -0.140625 -0.453125 -0.199219 c -0.160156 -0.058593 -0.328125 -0.109375 -0.5 -0.152343 c -0.171875 -0.039063 -0.347656 -0.074219 -0.53125 -0.09375 c -0.183594 -0.023438 -0.375 -0.03125 -0.574219 -0.027344 v 0.011718 c -0.167969 0.003907 -0.335937 0.019532 -0.496094 0.039063 c -0.160156 0.023437 -0.316406 0.054687 -0.472656 0.09375 c -0.152344 0.039063 -0.300781 0.082031 -0.445313 0.132813 c -0.140624 0.050781 -0.28125 0.105468 -0.414062 0.167968 c -0.132812 0.058594 -0.261719 0.125 -0.386719 0.195313 c -0.121093 0.070312 -0.242187 0.140625 -0.355469 0.214843 c -0.222656 0.152344 -0.425781 0.308594 -0.605468 0.464844 c -0.175782 0.160156 -0.335938 0.320313 -0.484375 0.480469 c -0.148438 0.160156 -0.285157 0.320313 -0.414063 0.484375 c -0.125 0.164062 -0.242187 0.332031 -0.355468 0.496094 c -0.109376 0.167968 -0.214844 0.335937 -0.316407 0.507812 c -0.203125 0.339844 -0.394531 0.6875 -0.570312 1.042969 c -0.179688 0.355469 -0.347657 0.714844 -0.507813 1.078125 c -0.15625 0.367188 -0.308594 0.734375 -0.457031 1.105469 c -0.144531 0.371093 -0.289063 0.742187 -0.429687 1.113281 c -0.285157 0.734375 -0.558594 1.472656 -0.820313 2.15625 c -0.128906 0.34375 -0.257813 0.671875 -0.382813 0.984375 s -0.246093 0.609375 -0.367187 0.875 c -0.128906 0.296875 -0.179687 0.425781 -0.21875 0.507813 c -0.035156 0.082031 -0.0625 0.117187 -0.140625 0.234374 l -10.746094 -0.023437 c -0.179687 -0.003906 -0.355468 0.011719 -0.527344 0.035156 c -0.171874 0.027344 -0.339843 0.066407 -0.503906 0.117188 c -0.160156 0.054687 -0.320312 0.117187 -0.46875 0.191406 c -0.152344 0.078125 -0.296875 0.164063 -0.433594 0.261719 c -0.132812 0.097656 -0.261718 0.203125 -0.382812 0.320312 c -0.117188 0.117188 -0.226562 0.242188 -0.328125 0.375 c -0.09375 0.132813 -0.179687 0.273438 -0.257813 0.417969 c 0.277344 0.621094 0.640626 1.175781 0.972657 1.699219 c 0.855469 1.324218 1.929687 2.570312 3.019531 3.796875 c 1.085938 1.210937 2.175781 2.375 3.003906 3.339843 c 0.515625 0.609376 0.882813 1.175782 1.082032 1.46875 c -0.023438 0.230469 -0.035157 0.785157 -0.21875 1.410157 c -0.132813 0.460937 -0.320313 1.011719 -0.511719 1.570312 c 0.066406 0.085938 0.140625 0.171875 0.199219 0.25 c 0.160156 0.222657 0.296874 0.421875 0.40625 0.585938 c 0.058593 0.085937 0.082031 0.125 0.125 0.183593 c 0 -0.019531 0.003906 -0.050781 0.007812 -0.066406 c 0.003906 -0.035156 0.015625 -0.050781 0.023438 -0.050781 c 0.023437 0.007813 0.058593 0.097656 0.121093 0.292969 c 0.011719 0.035156 0.015625 0.046875 0.007813 0.046875 c -0.007813 -0.003907 -0.023438 -0.023438 -0.046875 -0.054688 c -0.023438 -0.03125 -0.078125 -0.113281 -0.113281 -0.167969 c -0.003907 0.03125 -0.003907 0.050782 -0.007813 0.089844 c -0.011719 0.132813 -0.023437 0.324219 -0.050781 0.554688 c -0.015625 0.113281 -0.035156 0.238281 -0.0625 0.367187 c -0.023438 0.128907 -0.054688 0.261719 -0.097656 0.398438 c -0.160157 0.550781 -0.371094 1.191406 -0.609376 1.878906 c -0.238281 0.6875 -0.5 1.417969 -0.761718 2.152344 c -0.125 0.371093 -0.253906 0.742187 -0.375 1.117187 c -0.125 0.371094 -0.242188 0.746094 -0.351563 1.121094 c -0.109375 0.378906 -0.214843 0.757812 -0.304687 1.136719 c -0.027344 0.117187 -0.042969 0.234375 -0.070313 0.351562 c 0.277344 0.792969 0.808594 1.660157 1.683594 2.253907 c 1.136719 0.765624 2.449219 0.851562 3.398437 0.738281 c 0.964844 -0.109375 1.734376 -0.394531 2.488282 -0.714844 c 1.519531 -0.644531 2.941406 -1.535156 4.351562 -2.425781 c 1.398438 -0.890625 2.769532 -1.777344 3.84375 -2.398438 c 0.542969 -0.308594 1.070313 -0.488281 1.375 -0.597656 c 0.289063 0.105469 0.792969 0.28125 1.308594 0.585938 c 1.050781 0.621093 2.375 1.535156 3.746094 2.4375 c 1.375 0.890624 2.746094 1.792968 4.230468 2.449218 c 0.730469 0.320313 1.496094 0.617188 2.460938 0.726563 c 0.964844 0.113281 2.324219 0 3.460938 -0.828125 c 0.125 -0.097656 0.246093 -0.210938 0.359374 -0.320313 c 0.6875 -0.683593 1.097657 -1.476562 1.335938 -2.285156 c -0.027344 -0.125 -0.042969 -0.257813 -0.078125 -0.378906 c -0.097656 -0.386719 -0.210937 -0.765625 -0.335937 -1.136719 s -0.257813 -0.734375 -0.394532 -1.09375 c -0.136718 -0.355469 -0.277344 -0.710938 -0.417968 -1.058594 c -0.277344 -0.699218 -0.554688 -1.378906 -0.800782 -2.011718 c -0.125 -0.316407 -0.238281 -0.621094 -0.339844 -0.914063 c -0.101562 -0.289063 -0.195312 -0.5625 -0.269531 -0.820313 c -0.074219 -0.257812 -0.125 -0.492187 -0.160156 -0.695312 c -0.035156 -0.207031 -0.050781 -0.382812 -0.0625 -0.527344 c -0.011719 -0.207031 -0.007813 -0.253906 -0.007813 -0.3125 c -0.003906 0.003906 -0.015624 0.023438 -0.019531 0.023438 c -0.015625 0.011718 -0.023437 0.007812 -0.019531 -0.015625 c 0.003906 -0.023438 0.015625 -0.066407 0.035156 -0.128907 c 0.003906 -0.003906 0.007813 0.097657 0.003906 0.121094 c 0.035157 -0.03125 0.089844 -0.097656 0.175782 -0.210937 c 0.101562 -0.125 0.230468 -0.292969 0.390625 -0.480469 c 0.058593 -0.070312 0.140625 -0.148438 0.207031 -0.21875 c -0.214844 -0.5625 -0.40625 -1.09375 -0.542969 -1.554688 c -0.253906 -0.882812 -0.230469 -1.398437 -0.230469 -1.535156 c 0.113282 -0.101562 0.507813 -0.699218 1.132813 -1.296875 c 0.867187 -0.839843 2.054687 -1.878906 3.242187 -3.019531 c 1.1875 -1.125 2.375 -2.320312 3.3125 -3.769531 c 0.347657 -0.535157 0.679688 -1.152344 0.921876 -1.824219 z m -7.835938 13 c -0.066406 0.070312 -0.148438 0.148438 -0.207031 0.21875 c -0.160157 0.1875 -0.289063 0.355469 -0.390625 0.480469 c -0.085938 0.113281 -0.140625 0.179687 -0.175782 0.210937 c 0 0.058594 -0.003906 0.105469 0.007813 0.3125 c 0.011719 0.144532 0.027344 0.320313 0.0625 0.527344 c 0.035156 0.203125 0.085937 0.4375 0.160156 0.695312 c 0.074219 0.257813 0.167969 0.53125 0.269531 0.820313 c 0.101563 0.292969 0.214844 0.597656 0.339844 0.914063 c 0.246094 0.632812 0.523438 1.3125 0.800782 2.011718 c 0.140624 0.347656 0.28125 0.703125 0.417968 1.058594 c 0.136719 0.359375 0.269532 0.722656 0.394532 1.09375 s 0.238281 0.75 0.335937 1.136719 c 0.035156 0.121093 0.050781 0.253906 0.078125 0.378906 c 0.328125 -1.109375 0.320312 -2.25 0.171875 -3.191406 c -0.261719 -1.621094 -0.839844 -3.078125 -1.398437 -4.476563 c -0.304688 -0.769531 -0.605469 -1.507812 -0.867188 -2.191406 z m -31.949219 10.238281 c 0.027344 -0.117187 0.042969 -0.234375 0.070313 -0.351562 c 0.089844 -0.378907 0.195312 -0.757813 0.304687 -1.136719 c 0.109375 -0.375 0.226563 -0.75 0.351563 -1.121094 c 0.121094 -0.375 0.25 -0.746094 0.375 -1.117187 c 0.261718 -0.734375 0.523437 -1.464844 0.761718 -2.152344 c 0.238282 -0.6875 0.449219 -1.328125 0.609376 -1.878906 c 0.042968 -0.136719 0.074218 -0.269531 0.097656 -0.398438 c 0.027344 -0.128906 0.046875 -0.253906 0.0625 -0.367187 c 0.027344 -0.230469 0.039062 -0.421875 0.050781 -0.554688 c 0.003906 -0.039062 0.003906 -0.058594 0.007813 -0.089844 c -0.042969 -0.058593 -0.066407 -0.097656 -0.125 -0.183593 c -0.109376 -0.164063 -0.246094 -0.363281 -0.40625 -0.585938 c -0.058594 -0.078125 -0.132813 -0.164062 -0.199219 -0.25 c -0.265625 0.78125 -0.554688 1.605469 -0.859375 2.460938 c -0.503906 1.484375 -1.011719 2.980469 -1.261719 4.527343 c -0.121094 0.765626 -0.195313 1.554688 -0.023437 2.484376 c 0.039062 0.222656 0.097656 0.464843 0.183593 0.714843 z m 0 0" fill="url(#a)"/>
    <path d="m 63.734375 31.277344 v 0.011718 c -1.359375 0.035157 -2.460937 0.679688 -3.175781 1.308594 c -0.707032 0.632813 -1.164063 1.289063 -1.570313 1.96875 c -0.816406 1.359375 -1.398437 2.855469 -1.964843 4.339844 c -0.570313 1.472656 -1.089844 2.941406 -1.570313 4.015625 c -0.261719 0.59375 -0.199219 0.507813 -0.359375 0.742187 l -10.746094 -0.023437 c -1.433594 -0.011719 -2.679687 0.890625 -3.101562 2.199219 c -0.445313 1.4375 -0.226563 2.558594 0.199218 3.519531 c 0.078126 -0.144531 0.164063 -0.285156 0.257813 -0.417969 c 0.101563 -0.132812 0.210937 -0.257812 0.328125 -0.375 c 0.121094 -0.117187 0.25 -0.222656 0.382812 -0.320312 c 0.136719 -0.097656 0.28125 -0.183594 0.433594 -0.261719 c 0.148438 -0.074219 0.308594 -0.136719 0.46875 -0.191406 c 0.164063 -0.050781 0.332032 -0.089844 0.503906 -0.117188 c 0.171876 -0.023437 0.347657 -0.039062 0.527344 -0.035156 l 10.746094 0.023437 c 0.078125 -0.117187 0.105469 -0.152343 0.140625 -0.234374 c 0.039063 -0.082032 0.089844 -0.210938 0.21875 -0.507813 c 0.121094 -0.265625 0.242187 -0.5625 0.367187 -0.875 s 0.253907 -0.640625 0.382813 -0.984375 c 0.261719 -0.683594 0.535156 -1.421875 0.820313 -2.15625 c 0.140624 -0.371094 0.285156 -0.742188 0.429687 -1.113281 c 0.148437 -0.371094 0.300781 -0.738281 0.457031 -1.105469 c 0.160156 -0.363281 0.328125 -0.722656 0.507813 -1.078125 c 0.175781 -0.355469 0.367187 -0.703125 0.570312 -1.042969 c 0.101563 -0.171875 0.207031 -0.339844 0.316407 -0.507812 c 0.113281 -0.164063 0.230468 -0.332032 0.355468 -0.496094 c 0.128906 -0.164062 0.265625 -0.324219 0.414063 -0.484375 c 0.148437 -0.160156 0.308593 -0.320313 0.484375 -0.480469 c 0.179687 -0.15625 0.382812 -0.3125 0.605468 -0.464844 c 0.113282 -0.074218 0.234376 -0.144531 0.355469 -0.214843 c 0.125 -0.070313 0.253907 -0.136719 0.386719 -0.195313 c 0.132812 -0.0625 0.273438 -0.117187 0.414062 -0.167968 c 0.144532 -0.050782 0.292969 -0.09375 0.445313 -0.132813 c 0.15625 -0.039063 0.3125 -0.070313 0.472656 -0.09375 c 0.160157 -0.019531 0.328125 -0.035156 0.496094 -0.039063 v -0.011718 c 0.199219 -0.003906 0.390625 0.003906 0.574219 0.027344 c 0.183594 0.019531 0.359375 0.054687 0.53125 0.09375 c 0.171875 0.042968 0.339844 0.09375 0.5 0.152343 c 0.160156 0.058594 0.308594 0.128907 0.453125 0.199219 c 0.148437 0.074219 0.285156 0.152344 0.417969 0.234375 c 0.128906 0.082031 0.253906 0.164063 0.371093 0.253906 c 0.117188 0.085938 0.226563 0.175781 0.324219 0.265625 c 0.101562 0.089844 0.195312 0.179688 0.28125 0.269532 c 0.167969 0.171874 0.324219 0.347656 0.460938 0.519531 c 0.140624 0.175781 0.265624 0.351562 0.382812 0.527343 c 0.117188 0.179688 0.226562 0.355469 0.328125 0.535157 c 0.105469 0.179687 0.203125 0.363281 0.296875 0.542969 c 0.191406 0.367187 0.367188 0.742187 0.535156 1.121093 c 0.171875 0.382813 0.332032 0.769531 0.484375 1.160157 c 0.3125 0.785156 0.597657 1.578124 0.875 2.355468 c 0.285157 0.773438 0.5625 1.53125 0.832031 2.203125 c 0.132813 0.339844 0.261719 0.652344 0.386719 0.941407 c 0.125 0.285156 0.25 0.542968 0.363281 0.761718 c 0.0625 0.136719 0.0625 0.113282 0.121094 0.210938 h 11.390625 c 0.171875 0.003906 0.339844 0.015625 0.503907 0.042968 c 0.167968 0.027344 0.328124 0.066407 0.484374 0.113282 c 0.160157 0.050781 0.3125 0.113281 0.457032 0.183594 c 0.144531 0.070312 0.285156 0.152343 0.417968 0.242187 c 0.132813 0.089844 0.257813 0.191406 0.375 0.300781 c 0.117188 0.109375 0.226563 0.230469 0.328126 0.355469 c 0.097656 0.128906 0.191406 0.261719 0.269531 0.402344 c 0.050781 0.097656 0.09375 0.199219 0.136719 0.300781 c 0.414062 -1.152344 0.566406 -2.46875 0.066406 -3.851562 c -0.457032 -1.246094 -1.667969 -2.074219 -3.039063 -2.089844 h -11.390625 c -0.058594 -0.097656 -0.058594 -0.074219 -0.121094 -0.210938 c -0.457031 -0.875 -1.015624 -2.359375 -1.582031 -3.90625 c -0.558593 -1.554687 -1.140625 -3.175781 -1.894531 -4.636718 c -0.382812 -0.726563 -0.789062 -1.433594 -1.46875 -2.125 c -0.679688 -0.707032 -1.882812 -1.519532 -3.453125 -1.496094 z m 0 0" fill="#1a5fb4"/>
    <path d="m 116 84.800781 v 5.199219 c 0 5.765625 -4.636719 10.398438 -10.398438 10.398438 h -10.402343 v -5.199219 h 10.402343 c 5.761719 0 10.398438 -4.636719 10.398438 -10.398438 z m -104 0 c 0 5.761719 4.636719 10.398438 10.398438 10.398438 h 52 l 20.800781 20.800781 v 5.199219 l -20.800781 -20.800781 h -52 c -5.761719 0 -10.398438 -4.632813 -10.398438 -10.398438 z m 0 0" fill="url(#b)" fill-rule="evenodd"/>
</svg>
