<svg xmlns="http://www.w3.org/2000/svg" width="24" height="24">
    <g style="display:inline" transform="matrix(.25 0 0 .25 12 -4)">
        <path d="M21 42a11 11 0 0 0-8.648 4.244 1.004 1.004 0 0 0-.153.156l-.6.8a.999.999 0 0 0-.046.07 3.978 3.978 0 0 1-4.268 1.77A14 14 0 0 0 2 48a14 14 0 0 0-11.62 6.22c-.011.009-.023.016-.034.024a7.265 7.265 0 0 1-5.276 1.758A1.65 1.65 0 0 0-15 56h-3c-7.732 0-14 6.268-14 14s6.268 14 14 14a14 14 0 0 0 5.162-1.022.997.997 0 0 0 .244-.064l.373-.166.063-.027 4.908-2.182a6.266 6.266 0 0 1 6.023.512l1.588 1.058A14 14 0 0 0 10 86c7.732 0 14-6.268 14-14v-4a6.998 6.998 0 0 1 2.8-5.6c.341-.221.673-.52.971-.763A11 11 0 0 0 32 53c0-6.075-4.925-11-11-11z" style="fill:#fff"/>
        <circle cx="32" cy="68" r="4" style="display:inline;fill:#fff"/>
        <circle cx="6" cy="42" r="2" style="display:inline;fill:#fff"/>
        <circle cx="-15" cy="49" r="3" style="display:inline;fill:#fff"/>
    </g>
</svg>
